<svg width="231" height="230" viewBox="0 0 231 230" fill="none" xmlns="http://www.w3.org/2000/svg">
<circle cx="115" cy="115" r="115" fill="#ede8e8"/>
<path d="M206.355 76.5033L197.442 73.9459L194.617 74.9459L193.127 75.4683C196.39 81.9332 198.852 88.853 200.415 96.1053L201.475 95.7678L211.512 92.5579C210.239 87.013 208.52 81.6507 206.355 76.5033ZM212.972 100.515L201.742 104.108C202.162 107.508 202.367 110.975 202.367 114.482C202.367 162.551 163.271 201.653 115.215 201.653C89.7084 201.653 66.7241 190.63 50.7722 173.101L51.4172 177.061C52.1822 180.108 51.7097 183.501 50.0497 186.743C49.8348 187.168 49.6047 187.58 49.3473 187.988C66.8367 203.69 89.9309 213.25 115.218 213.25C169.661 213.25 213.964 168.943 213.964 114.48C213.962 109.747 213.624 105.083 212.972 100.515ZM17.4657 100.553C16.8058 105.1 16.4758 109.76 16.4758 114.482C16.4758 115.372 16.4858 116.277 16.5208 117.162C17.8958 115.855 19.4457 114.742 21.1631 113.837L25.783 103.203L17.4657 100.553Z" fill="#EFB81C"/>
<path d="M115.213 146.687V133.457L55.162 113.9V160.306C55.162 160.306 99.9556 180.826 113.7 197.025V155.706C112.255 155.014 111.245 153.341 111.245 151.382C111.243 148.782 113.02 146.687 115.213 146.687ZM85.1885 166.794L78.3287 149.112V163.766L72.8864 160.971V126.532L78.3287 128.417V145.329L85.511 131.647L94.2307 134.797V135.045L83.6636 146.984L94.5482 171.336L85.1885 166.794Z" fill="#EFB81C"/>
<path d="M115.213 133.457V146.687C117.407 146.687 119.182 148.782 119.182 151.379C119.182 153.354 118.167 155.024 116.71 155.719V197.17C121.757 191.336 139.119 173.889 176.271 159.514V113.9L115.213 133.457ZM158.164 145.204L145.234 151.584V161.159L158.164 155.061V157.981L133.897 171.971V139.149L158.021 129.095V132.032L145.234 138.737V147.624L158.164 142.217V145.204Z" fill="#EFB81C"/>
<path d="M65.5393 193.408L62.8395 191.561L61.1245 194.063L64.1319 196.123L63.6169 196.875L59.712 194.203L64.4693 187.261L68.2192 189.828L67.7043 190.581L64.8519 188.628L63.3469 190.82L66.0468 192.67L65.5393 193.408Z" fill="#010101"/>
<path d="M71.689 201.555L71.639 199.41C71.5965 198.575 71.579 198.038 71.5815 197.485L71.559 197.473C71.1165 197.785 70.694 198.065 69.9565 198.503L68.1841 199.638L67.0891 199.038L71.3865 196.538L71.214 191.705L72.319 192.31L72.3464 194.573C72.3564 195.205 72.3615 195.69 72.3415 196.19L72.374 196.21C72.8215 195.885 73.1939 195.648 73.7264 195.325L75.6788 194.145L76.7738 194.745L72.5639 197.108L72.7914 202.153L71.689 201.555Z" fill="#010101"/>
<path d="M82.1489 205.975C81.7039 206.008 80.8889 205.883 79.9439 205.49C77.7565 204.578 76.684 202.508 77.7465 199.96C78.7615 197.528 81.0964 196.57 83.5038 197.575C84.4713 197.978 84.9963 198.44 85.2038 198.688L84.6213 199.405C84.3188 199.06 83.8338 198.698 83.1888 198.428C81.3689 197.668 79.6739 198.328 78.8215 200.365C78.029 202.268 78.614 203.945 80.5015 204.733C81.114 204.988 81.7864 205.118 82.2714 205.093L82.1489 205.975Z" fill="#010101"/>
<path d="M91.8833 205.205L88.7459 204.285L87.8935 207.195L91.3909 208.22L91.1334 209.095L86.5935 207.765L88.9585 199.693L93.3183 200.973L93.0608 201.848L89.7434 200.875L88.9959 203.428L92.1333 204.345L91.8833 205.205Z" fill="#010101"/>
<path d="M97.2784 201.873L98.3483 202.068L96.9959 209.45L100.533 210.098L100.368 210.995L95.7634 210.15L97.2784 201.873Z" fill="#010101"/>
<path d="M105.526 203.163L106.608 203.248L106.013 210.72L109.595 211.005L109.523 211.912L104.858 211.542L105.526 203.163Z" fill="#010101"/>
<path d="M118.34 207.997L115.07 208.055L115.125 211.087L118.768 211.02L118.785 211.93L114.058 212.017L113.903 203.61L118.443 203.528L118.46 204.438L115.005 204.5L115.055 207.157L118.323 207.1L118.34 207.997Z" fill="#010101"/>
<path d="M123.542 211.63L122.512 203.273L123.69 203.125L126.89 207.025C127.63 207.928 128.222 208.748 128.722 209.558L128.745 209.54C128.51 208.438 128.36 207.423 128.197 206.123L127.767 202.628L128.782 202.503L129.812 210.858L128.72 210.993L125.542 207.08C124.847 206.223 124.172 205.338 123.637 204.483L123.602 204.5C123.795 205.548 123.942 206.548 124.115 207.938L124.555 211.508L123.542 211.63Z" fill="#010101"/>
<path d="M140.642 208.258C140.299 208.545 139.569 208.925 138.577 209.16C136.272 209.713 134.187 208.673 133.547 205.99C132.935 203.43 134.255 201.28 136.79 200.675C137.81 200.43 138.504 200.495 138.819 200.575L138.77 201.495C138.322 201.398 137.717 201.388 137.04 201.55C135.122 202.008 134.142 203.538 134.657 205.683C135.135 207.685 136.592 208.695 138.582 208.22C139.227 208.065 139.847 207.778 140.222 207.47L140.642 208.258Z" fill="#010101"/>
<path d="M148.029 201.975L144.942 203.055L145.944 205.92L149.384 204.72L149.684 205.58L145.217 207.143L142.442 199.198L146.732 197.695L147.034 198.558L143.767 199.698L144.647 202.21L147.732 201.13L148.029 201.975Z" fill="#010101"/>
<path d="M156.292 193.343L160.146 200.825L159.181 201.323L155.327 193.84L156.292 193.343Z" fill="#010101"/>
<path d="M164.664 198.37L160.166 191.276L161.164 190.641L165.714 192.788C166.766 193.286 167.651 193.773 168.451 194.286L168.466 194.263C167.781 193.368 167.211 192.518 166.511 191.411L164.629 188.441L165.494 187.893L169.991 194.99L169.066 195.575L164.531 193.406C163.536 192.931 162.546 192.418 161.701 191.878L161.676 191.908C162.296 192.771 162.859 193.611 163.604 194.788L165.529 197.82L164.664 198.37Z" fill="#010101"/>
<path d="M181.171 180.251C183.126 182.386 182.866 184.703 181.286 186.153C179.651 187.653 177.338 187.438 175.616 185.563C173.811 183.596 173.856 181.188 175.511 179.671C177.203 178.118 179.486 178.411 181.171 180.251ZM176.456 184.761C177.671 186.083 179.476 186.611 180.733 185.456C182.003 184.293 181.651 182.468 180.361 181.061C179.231 179.828 177.408 179.133 176.076 180.356C174.748 181.571 175.211 183.398 176.456 184.761Z" fill="#010101"/>
<path d="M187.085 180.966L182.658 172.341L183.223 171.709L187.645 180.343L187.085 180.966Z" fill="#010101"/>
<path d="M190.948 171.501L192.563 173.776L191.895 174.681L186.8 167.386L187.58 166.329L196.07 168.999L195.383 169.936L192.718 169.091L190.948 171.501ZM191.895 168.771L189.453 168.001C188.9 167.826 188.423 167.631 187.955 167.441L187.94 167.461C188.27 167.859 188.603 168.274 188.918 168.709L190.395 170.816L191.895 168.771Z" fill="#010101"/>
<path d="M193.858 156.356L194.35 155.386L201.045 158.779L202.67 155.571L203.482 155.981L201.365 160.159L193.858 156.356Z" fill="#010101"/>
<path d="M203.232 146.302L202.042 149.352L204.87 150.452L206.195 147.057L207.045 147.389L205.325 151.799L197.483 148.739L199.132 144.504L199.982 144.837L198.725 148.059L201.202 149.027L202.392 145.977L203.232 146.302Z" fill="#010101"/>
<path d="M209.062 141.002L200.232 141.409L200.545 140.279L204.882 140.122C206.072 140.074 207.137 140.047 208.15 140.092L208.155 140.067C207.28 139.582 206.352 138.962 205.395 138.309L201.772 135.834L202.08 134.719L209.38 139.852L209.062 141.002Z" fill="#010101"/>
<path d="M207.885 127.87L207.327 131.097L210.32 131.615L210.942 128.02L211.842 128.177L211.032 132.845L202.727 131.407L203.507 126.922L204.407 127.08L203.815 130.49L206.44 130.947L207 127.72L207.885 127.87Z" fill="#010101"/>
<path d="M204.032 122.83L204.12 121.745L211.595 122.365L211.892 118.782L212.8 118.857L212.412 123.52L204.032 122.83Z" fill="#010101"/>
<path d="M115.13 26.6697C144.379 26.6697 170.354 40.9394 186.476 62.8738L201.07 67.8987L202.653 68.4411C198.098 59.9414 192.268 52.0566 185.251 45.0443C166.521 26.3198 141.619 16 115.13 16C88.6487 16 63.7495 26.3198 45.0201 45.0443C38.5079 51.5566 33.013 58.8214 28.6182 66.6312L46.1277 59.8314C62.3621 39.6294 87.2638 26.6697 115.13 26.6697Z" fill="#F9B517"/>
<path d="M229.242 86.8905L217.822 90.5305L211.7 92.4929L211.512 92.5554L201.475 95.7654L200.415 96.1028L195.348 97.7203L117.865 122.517C116.188 123.062 114.398 123.062 112.718 122.53L54.8922 104.07L53.3123 103.563L46.5225 101.398C44.8676 103.263 43.5376 105.083 42.4852 106.828C42.1877 107.32 41.9227 107.805 41.6752 108.273L33.4579 105.65L33.6479 105.225L34.1129 104.153L36.6728 98.2577L34.9254 97.6953L30.543 96.2928L30.0256 96.1329L28.9931 95.8003L28.7956 95.7378L18.9334 92.5954L18.5759 92.4705L12.4536 90.518L2.30395 87.2856C0.619008 86.7406 0.548991 84.3831 2.19894 83.7481L16.156 78.3283L24.3507 75.1433L24.7157 75.0058L39.4952 69.2685L41.1302 68.631C41.1352 68.631 41.1352 68.621 41.1352 68.621L50.0749 65.1661L105.401 43.6842C107.138 43.0117 109.04 42.9742 110.795 43.5767L136.735 52.5164C137.982 52.9439 137.982 54.7014 136.742 55.1389L67.5543 79.5033L83.9413 85.1056L155.189 58.8663L177.658 66.6061C178.958 67.0561 178.966 68.8885 177.668 69.3485L104.566 93.8229L125.12 100.503L188.515 77.0933L193.125 75.4659L194.615 74.9434L197.44 73.9434L206.352 76.5009L206.512 76.5458L214.46 79.2808L229.269 84.3681C230.491 84.7831 230.471 86.503 229.242 86.8905Z" fill="#3292D0"/>
<path d="M229.242 86.8905L217.822 90.5305L211.7 92.4929L211.512 92.5554L201.475 95.7654L200.415 96.1028L195.348 97.7203L117.865 122.517C116.188 123.062 114.398 123.062 112.718 122.53L54.8922 104.07L53.3123 103.563L46.5225 101.398L36.6728 98.2577L34.9254 97.6953L30.543 96.2928L30.0256 96.1329L28.9931 95.8003L28.7956 95.7378L18.9334 92.5954L18.5759 92.4705L12.4536 90.518L2.30395 87.2856C0.619008 86.7406 0.548991 84.3831 2.19894 83.7481L16.156 78.3283L24.3507 75.1433L24.7157 75.0058L39.4952 69.2685L41.1302 68.631C41.1352 68.631 41.1352 68.621 41.1352 68.621L50.0749 65.1661L105.401 43.6842C107.138 43.0117 109.04 42.9742 110.795 43.5767L136.735 52.5164C137.982 52.9439 137.982 54.7014 136.742 55.1389L67.5543 79.5033L83.9413 85.1056L155.189 58.8663L177.658 66.6061C178.958 67.0561 178.966 68.8885 177.668 69.3485L104.566 93.8229L125.12 100.503L188.515 77.0933L193.125 75.4659L194.615 74.9434L197.44 73.9434L206.352 76.5009L206.512 76.5458L214.46 79.2808L229.269 84.3681C230.491 84.7831 230.471 86.503 229.242 86.8905Z" fill="#3292D0"/>
<path d="M60.7371 97.5054L54.8923 104.073L53.3123 103.565L46.5225 101.4C44.8676 103.265 43.5377 105.085 42.4852 106.83C42.1877 107.323 41.9227 107.808 41.6752 108.275C38.0778 115.055 38.5003 120.477 38.7953 122.297C41.7002 124.632 43.5651 128.217 43.5651 132.242C43.5651 136.677 41.2902 140.569 37.8578 142.859C37.8228 142.884 37.7953 142.909 37.7603 142.922L40.3828 159.091L41.1052 163.571L42.6777 173.289L43.5651 178.783C43.8526 179.651 43.8052 180.818 43.3252 182.113C43.2177 182.431 43.0752 182.758 42.9052 183.086C42.1002 184.641 40.7102 186.296 38.5453 187.791C36.0179 189.543 32.468 191.063 27.6281 191.911C14.1761 194.28 10.6162 189.813 12.0712 182.513C12.9261 180.948 18.5459 171.989 22.0158 164.976C22.9608 163.069 23.7458 161.311 24.2308 159.879C24.3958 159.641 24.8632 158.654 25.3982 157.454C25.5507 157.136 25.7007 156.799 25.8557 156.459C26.7907 154.356 27.7632 152.107 27.7632 152.107C27.7632 152.107 28.3507 147.782 28.4232 144.754C24.2858 143.972 20.8609 141.187 19.1859 137.454C18.4685 135.864 18.0709 134.1 18.0709 132.242V132.187C18.0984 126.585 21.7459 121.825 26.7932 120.152C26.9382 120.1 27.0882 120.05 27.2382 120.005L28.1481 117.9L33.463 105.655L33.6529 105.23L34.1179 104.158L36.6778 98.2629L34.9304 97.7004L30.548 96.298L30.0305 96.138L28.9981 95.8055L31.7255 89.5107L32.208 88.4032L60.7371 97.5054Z" fill="#3292D0"/>
<path d="M71.6291 33.3946C72.3366 34.6996 73.4591 34.802 74.434 34.2971C75.1315 33.9321 75.489 33.5946 75.774 33.2471L76.3014 33.8571C76.0389 34.1921 75.544 34.672 74.6915 35.117C73.0441 35.977 71.4941 35.4045 70.6541 33.7896C69.8141 32.1746 70.1017 30.4047 71.6616 29.5947C73.4091 28.6847 74.674 29.9796 75.1865 30.9646C75.2915 31.1646 75.349 31.3297 75.389 31.4347L71.6291 33.3946ZM74.1216 31.2121C73.8091 30.5871 73.044 29.7622 71.9491 30.3322C70.9641 30.8446 71.0066 31.9746 71.2791 32.6896L74.1216 31.2121Z" fill="#010101"/>
<path d="M80.1539 28.8373L80.1764 28.8298C80.2364 28.5748 80.3363 28.2548 80.4188 27.9898L81.2888 25.3948L82.5188 24.8999L81.2764 28.0773L85.0737 30.3923L83.8313 30.8897L80.8139 28.9748L80.5238 29.7622L81.3713 31.8747L80.3614 32.2797L77.059 24.0449L78.0665 23.6399L80.1539 28.8373Z" fill="#010101"/>
<path d="M88.1011 26.4475C88.5386 27.865 89.6186 28.1874 90.6736 27.8824C91.4286 27.6624 91.846 27.3999 92.191 27.1174L92.5885 27.8199C92.266 28.0924 91.686 28.4699 90.7661 28.7374C88.9811 29.2524 87.5762 28.3875 87.0687 26.64C86.5612 24.8925 87.1937 23.2151 88.8836 22.7276C90.7761 22.1776 91.761 23.6976 92.071 24.7625C92.1335 24.9775 92.1585 25.1525 92.176 25.2625L88.1011 26.4475ZM90.9736 24.7975C90.7911 24.1226 90.201 23.165 89.0161 23.5075C87.9511 23.815 87.7661 24.9325 87.8961 25.6875L90.9736 24.7975Z" fill="#010101"/>
<path d="M100.423 17.415L101.718 24.5998C101.813 25.1273 101.933 25.7273 102.043 26.1248L101.073 26.2998L100.838 25.2773L100.813 25.2823C100.603 26.0048 99.9683 26.6398 98.9958 26.8123C97.5584 27.0723 96.2359 26.0548 95.9085 24.2499C95.541 22.2749 96.5484 20.8375 97.9984 20.575C98.9059 20.4125 99.5983 20.7324 99.9558 21.1599L99.9808 21.1575L99.3408 17.6075L100.423 17.415ZM100.278 22.8049C100.253 22.6674 100.208 22.4874 100.148 22.3574C99.8633 21.6974 99.1733 21.2399 98.3634 21.3849C97.2459 21.5874 96.7584 22.6874 96.9959 24.0024C97.2109 25.2074 97.9809 26.0973 99.1483 25.8848C99.8733 25.7548 100.451 25.1573 100.501 24.3099C100.511 24.1549 100.498 24.0074 100.466 23.8349L100.278 22.8049Z" fill="#010101"/>
<path d="M111.328 23.5997C111.373 24.2222 111.423 24.7721 111.493 25.2421L110.521 25.3096L110.391 24.3272L110.366 24.3297C110.113 24.8347 109.523 25.5172 108.448 25.5922C107.501 25.6572 106.328 25.2147 106.178 23.0947L105.928 19.5648L107.026 19.4873L107.261 22.8322C107.341 23.9797 107.746 24.7272 108.743 24.6572C109.478 24.6047 109.953 24.0572 110.118 23.5572C110.171 23.3922 110.193 23.1897 110.178 22.9872L109.918 19.2848L111.016 19.2073L111.328 23.5997Z" fill="#010101"/>
<path d="M120.137 25.1049C119.845 25.2474 119.202 25.4274 118.393 25.4024C116.57 25.3474 115.423 24.0749 115.48 22.2274C115.538 20.37 116.85 19.06 118.822 19.1225C119.47 19.1425 120.04 19.32 120.332 19.48L120.058 20.3225C119.8 20.165 119.393 20.015 118.795 19.995C117.41 19.9525 116.63 20.9525 116.593 22.2125C116.55 23.6124 117.423 24.4999 118.62 24.5374C119.245 24.5549 119.66 24.4049 119.975 24.2774L120.137 25.1049Z" fill="#010101"/>
<path d="M127.355 26.0621L127.365 25.2947L127.328 25.2897C126.935 25.7197 126.235 26.0597 125.38 25.9522C124.165 25.7972 123.655 24.8647 123.763 23.9972C123.945 22.5472 125.335 21.9173 127.653 22.2223L127.667 22.0972C127.73 21.6022 127.708 20.6898 126.48 20.5373C125.92 20.4673 125.315 20.5673 124.86 20.7873L124.703 20.0373C125.24 19.7773 125.985 19.6573 126.74 19.7523C128.572 19.9848 128.862 21.2922 128.71 22.4947L128.427 24.7397C128.365 25.2597 128.325 25.7697 128.347 26.1897L127.355 26.0621ZM127.582 22.9797C126.393 22.8047 125.018 22.8447 124.87 24.0097C124.78 24.7147 125.21 25.1097 125.768 25.1822C126.55 25.2797 127.105 24.8472 127.345 24.3597C127.395 24.2547 127.438 24.1322 127.45 24.0197L127.582 22.9797Z" fill="#010101"/>
<path d="M135.524 19.6276L135.159 21.325L136.697 21.6575L136.519 22.4749L134.982 22.1425L134.297 25.3274C134.14 26.0599 134.257 26.5198 134.857 26.6473C135.137 26.7073 135.352 26.7148 135.497 26.7073L135.37 27.5223C135.145 27.5648 134.8 27.5548 134.385 27.4648C133.885 27.3573 133.515 27.1123 133.322 26.7648C133.085 26.3823 133.087 25.8324 133.24 25.1374L133.932 21.915L133.02 21.7175L133.195 20.9L134.11 21.0975L134.415 19.6825L135.524 19.6276Z" fill="#010101"/>
<path d="M139.157 28.5472L140.84 22.7499L141.892 23.0548L140.212 28.8521L139.157 28.5472ZM142.484 21.4598C142.394 21.8248 142.045 22.0323 141.627 21.9148C141.257 21.8073 141.075 21.4423 141.177 21.0823C141.285 20.7123 141.647 20.5049 142.027 20.6149C142.422 20.7299 142.592 21.0898 142.484 21.4598Z" fill="#010101"/>
<path d="M150.702 29.3221C149.897 31.4045 148.102 31.7545 146.739 31.227C145.217 30.6395 144.474 29.0671 145.162 27.2872C145.889 25.4022 147.552 24.7747 149.112 25.3772C150.729 25.9997 151.369 27.5971 150.702 29.3221ZM146.212 27.6521C145.734 28.8846 146.084 30.0921 147.084 30.4771C148.064 30.8546 149.152 30.2195 149.639 28.9521C150.009 27.9971 150.002 26.6047 148.789 26.1347C147.579 25.6672 146.624 26.5797 146.212 27.6521Z" fill="#010101"/>
<path d="M155.199 29.8947C155.484 29.3397 155.709 28.8797 155.904 28.4172L156.769 28.8647L156.369 29.7797L156.389 29.7922C156.921 29.4197 157.799 29.2397 158.689 29.6972C159.431 30.0797 160.356 31.1197 159.406 32.9646L157.751 36.172L156.774 35.667L158.371 32.5721C158.821 31.7046 158.869 30.8196 157.946 30.3422C157.301 30.0097 156.569 30.2072 156.124 30.6672C156.016 30.7647 155.906 30.9222 155.824 31.0872L154.159 34.317L153.182 33.8146L155.199 29.8947Z" fill="#010101"/>
</svg>
